<svg width="50" height="50" viewBox="0 0 50 50" fill="none" xmlns="http://www.w3.org/2000/svg">
<path d="M45.5547 5.95703H41.1602V4.39453C41.1602 1.97139 39.1888 0 36.7656 0C34.3425 0 32.3711 1.97139 32.3711 4.39453V5.95703H29.4414V4.39453C29.4414 1.97139 27.47 0 25.0469 0C22.6237 0 20.6523 1.97139 20.6523 4.39453V5.95703H17.7227V4.39453C17.7227 1.97139 15.7513 0 13.3281 0C10.905 0 8.93359 1.97139 8.93359 4.39453V5.95703H4.44141C2.01826 5.95703 0.046875 7.92842 0.046875 10.3516V45.6055C0.046875 48.0286 2.01826 50 4.44141 50H45.5547C47.9778 50 49.9492 48.0286 49.9492 45.6055V10.3516C49.9492 7.92842 47.9778 5.95703 45.5547 5.95703ZM35.3008 4.39453C35.3008 3.58682 35.9579 2.92969 36.7656 2.92969C37.5733 2.92969 38.2305 3.58682 38.2305 4.39453V5.95703H35.3008V4.39453ZM23.582 4.39453C23.582 3.58682 24.2392 2.92969 25.0469 2.92969C25.8546 2.92969 26.5117 3.58682 26.5117 4.39453V5.95703H23.582V4.39453ZM11.8633 4.39453C11.8633 3.58682 12.5204 2.92969 13.3281 2.92969C14.1358 2.92969 14.793 3.58682 14.793 4.39453V5.95703H11.8633V4.39453ZM4.44141 8.88672H14.793V10.3516C14.793 11.1593 14.1358 11.8164 13.3281 11.8164C12.5191 11.8164 11.8633 12.4723 11.8633 13.2812C11.8633 14.0902 12.5191 14.7461 13.3281 14.7461C15.7513 14.7461 17.7227 12.7747 17.7227 10.3516V8.88672H26.5117V10.3516C26.5117 11.1593 25.8546 11.8164 25.0469 11.8164C24.2379 11.8164 23.582 12.4723 23.582 13.2812C23.582 14.0902 24.2379 14.7461 25.0469 14.7461C27.47 14.7461 29.4414 12.7747 29.4414 10.3516V8.88672H38.2305V10.3516C38.2305 11.1593 37.5733 11.8164 36.7656 11.8164C35.9566 11.8164 35.3008 12.4723 35.3008 13.2812C35.3008 14.0902 35.9566 14.7461 36.7656 14.7461C39.1888 14.7461 41.1602 12.7747 41.1602 10.3516V8.88672H45.5547C46.3624 8.88672 47.0195 9.54385 47.0195 10.3516V17.6758H2.97656V10.3516C2.97656 9.54385 3.63369 8.88672 4.44141 8.88672ZM2.97656 45.6055V20.6055H47.0195V35.2539H36.7168C35.9078 35.2539 35.252 35.9098 35.252 36.7188V47.0703H4.44141C3.63369 47.0703 2.97656 46.4132 2.97656 45.6055ZM44.8427 38.1836L38.1816 44.9565V38.1836H44.8427ZM45.5547 47.0703H40.212L47.0195 40.1483V45.6055C47.0195 46.4132 46.3624 47.0703 45.5547 47.0703Z" fill="#F76D41"/>
<path d="M13.2812 23.5352H10.3516C9.54258 23.5352 8.88672 24.191 8.88672 25C8.88672 25.809 9.54258 26.4648 10.3516 26.4648H13.2812C14.0902 26.4648 14.7461 25.809 14.7461 25C14.7461 24.191 14.0902 23.5352 13.2812 23.5352Z" fill="#F76D41"/>
<path d="M13.2812 29.3945H10.3516C9.54258 29.3945 8.88672 30.0504 8.88672 30.8594C8.88672 31.6684 9.54258 32.3242 10.3516 32.3242H13.2812C14.0902 32.3242 14.7461 31.6684 14.7461 30.8594C14.7461 30.0504 14.0902 29.3945 13.2812 29.3945Z" fill="#F76D41"/>
<path d="M13.2812 35.2539H10.3516C9.54258 35.2539 8.88672 35.9098 8.88672 36.7188C8.88672 37.5277 9.54258 38.1836 10.3516 38.1836H13.2812C14.0902 38.1836 14.7461 37.5277 14.7461 36.7188C14.7461 35.9098 14.0902 35.2539 13.2812 35.2539Z" fill="#F76D41"/>
<path d="M13.2812 41.1133H10.3516C9.54258 41.1133 8.88672 41.7691 8.88672 42.5781C8.88672 43.3871 9.54258 44.043 10.3516 44.043H13.2812C14.0902 44.043 14.7461 43.3871 14.7461 42.5781C14.7461 41.7691 14.0902 41.1133 13.2812 41.1133Z" fill="#F76D41"/>
<path d="M22.0703 23.5352H19.1406C18.3316 23.5352 17.6758 24.191 17.6758 25C17.6758 25.809 18.3316 26.4648 19.1406 26.4648H22.0703C22.8793 26.4648 23.5352 25.809 23.5352 25C23.5352 24.191 22.8793 23.5352 22.0703 23.5352Z" fill="#F76D41"/>
<path d="M22.0703 29.3945H19.1406C18.3316 29.3945 17.6758 30.0504 17.6758 30.8594C17.6758 31.6684 18.3316 32.3242 19.1406 32.3242H22.0703C22.8793 32.3242 23.5352 31.6684 23.5352 30.8594C23.5352 30.0504 22.8793 29.3945 22.0703 29.3945Z" fill="#F76D41"/>
<path d="M22.0703 35.2539H19.1406C18.3316 35.2539 17.6758 35.9098 17.6758 36.7188C17.6758 37.5277 18.3316 38.1836 19.1406 38.1836H22.0703C22.8793 38.1836 23.5352 37.5277 23.5352 36.7188C23.5352 35.9098 22.8793 35.2539 22.0703 35.2539Z" fill="#F76D41"/>
<path d="M22.0703 41.1133H19.1406C18.3316 41.1133 17.6758 41.7691 17.6758 42.5781C17.6758 43.3871 18.3316 44.043 19.1406 44.043H22.0703C22.8793 44.043 23.5352 43.3871 23.5352 42.5781C23.5352 41.7691 22.8793 41.1133 22.0703 41.1133Z" fill="#F76D41"/>
<path d="M27.9297 26.4648H30.8594C31.6684 26.4648 32.3242 25.809 32.3242 25C32.3242 24.191 31.6684 23.5352 30.8594 23.5352H27.9297C27.1207 23.5352 26.4648 24.191 26.4648 25C26.4648 25.809 27.1207 26.4648 27.9297 26.4648Z" fill="#F76D41"/>
<path d="M30.8594 29.3945H27.9297C27.1207 29.3945 26.4648 30.0504 26.4648 30.8594C26.4648 31.6684 27.1207 32.3242 27.9297 32.3242H30.8594C31.6684 32.3242 32.3242 31.6684 32.3242 30.8594C32.3242 30.0504 31.6684 29.3945 30.8594 29.3945Z" fill="#F76D41"/>
<path d="M30.8594 35.2539H27.9297C27.1207 35.2539 26.4648 35.9098 26.4648 36.7188C26.4648 37.5277 27.1207 38.1836 27.9297 38.1836H30.8594C31.6684 38.1836 32.3242 37.5277 32.3242 36.7188C32.3242 35.9098 31.6684 35.2539 30.8594 35.2539Z" fill="#F76D41"/>
<path d="M30.8594 41.1133H27.9297C27.1207 41.1133 26.4648 41.7691 26.4648 42.5781C26.4648 43.3871 27.1207 44.043 27.9297 44.043H30.8594C31.6684 44.043 32.3242 43.3871 32.3242 42.5781C32.3242 41.7691 31.6684 41.1133 30.8594 41.1133Z" fill="#F76D41"/>
<path d="M36.7188 26.4648H39.6484C40.4574 26.4648 41.1133 25.809 41.1133 25C41.1133 24.191 40.4574 23.5352 39.6484 23.5352H36.7188C35.9098 23.5352 35.2539 24.191 35.2539 25C35.2539 25.809 35.9098 26.4648 36.7188 26.4648Z" fill="#F76D41"/>
<path d="M36.7188 32.3242H39.6484C40.4574 32.3242 41.1133 31.6684 41.1133 30.8594C41.1133 30.0504 40.4574 29.3945 39.6484 29.3945H36.7188C35.9098 29.3945 35.2539 30.0504 35.2539 30.8594C35.2539 31.6684 35.9098 32.3242 36.7188 32.3242Z" fill="#F76D41"/>
</svg>
