<svg width="40" height="40" viewBox="0 0 40 40" fill="none" xmlns="http://www.w3.org/2000/svg">
<path d="M35.8341 6.66675H32.2229V8.88897H35.5563V33.3334H4.44516V8.88897H7.7785V6.66675H4.16739C3.90765 6.67109 3.65131 6.72655 3.41302 6.82998C3.17472 6.9334 2.95913 7.08276 2.77857 7.26952C2.598 7.45627 2.45599 7.67677 2.36066 7.91842C2.26532 8.16006 2.21853 8.41812 2.22294 8.67786V33.5445C2.21853 33.8043 2.26532 34.0623 2.36066 34.304C2.45599 34.5456 2.598 34.7661 2.77857 34.9529C2.95913 35.1396 3.17472 35.289 3.41302 35.3924C3.65131 35.4958 3.90765 35.5513 4.16739 35.5556H35.8341C36.0938 35.5513 36.3501 35.4958 36.5884 35.3924C36.8267 35.289 37.0423 35.1396 37.2229 34.9529C37.4034 34.7661 37.5454 34.5456 37.6408 34.304C37.7361 34.0623 37.7829 33.8043 37.7785 33.5445V8.67786C37.7829 8.41812 37.7361 8.16006 37.6408 7.91842C37.5454 7.67677 37.4034 7.45627 37.2229 7.26952C37.0423 7.08276 36.8267 6.9334 36.5884 6.82998C36.3501 6.72655 36.0938 6.67109 35.8341 6.66675Z" fill="#DB251A"/>
<path d="M8.89062 15.5557H11.1128V17.7779H8.89062V15.5557Z" fill="#DB251A"/>
<path d="M15.5547 15.5557H17.7769V17.7779H15.5547V15.5557Z" fill="#DB251A"/>
<path d="M22.2227 15.5557H24.4449V17.7779H22.2227V15.5557Z" fill="#DB251A"/>
<path d="M28.8906 15.5557H31.1128V17.7779H28.8906V15.5557Z" fill="#DB251A"/>
<path d="M8.89062 21.1111H11.1128V23.3333H8.89062V21.1111Z" fill="#DB251A"/>
<path d="M15.5547 21.1111H17.7769V23.3333H15.5547V21.1111Z" fill="#DB251A"/>
<path d="M22.2227 21.1111H24.4449V23.3333H22.2227V21.1111Z" fill="#DB251A"/>
<path d="M28.8906 21.1111H31.1128V23.3333H28.8906V21.1111Z" fill="#DB251A"/>
<path d="M8.89062 26.6667H11.1128V28.889H8.89062V26.6667Z" fill="#DB251A"/>
<path d="M15.5547 26.6667H17.7769V28.889H15.5547V26.6667Z" fill="#DB251A"/>
<path d="M22.2227 26.6667H24.4449V28.889H22.2227V26.6667Z" fill="#DB251A"/>
<path d="M28.8906 26.6667H31.1128V28.889H28.8906V26.6667Z" fill="#DB251A"/>
<path d="M11.1111 11.1111C11.4058 11.1111 11.6884 10.994 11.8968 10.7856C12.1052 10.5772 12.2222 10.2946 12.2222 9.99995V3.33328C12.2222 3.03859 12.1052 2.75598 11.8968 2.5476C11.6884 2.33923 11.4058 2.22217 11.1111 2.22217C10.8164 2.22217 10.5338 2.33923 10.3254 2.5476C10.1171 2.75598 10 3.03859 10 3.33328V9.99995C10 10.2946 10.1171 10.5772 10.3254 10.7856C10.5338 10.994 10.8164 11.1111 11.1111 11.1111Z" fill="#DB251A"/>
<path d="M28.8885 11.1111C29.1831 11.1111 29.4658 10.994 29.6741 10.7856C29.8825 10.5772 29.9996 10.2946 29.9996 9.99995V3.33328C29.9996 3.03859 29.8825 2.75598 29.6741 2.5476C29.4658 2.33923 29.1831 2.22217 28.8885 2.22217C28.5938 2.22217 28.3112 2.33923 28.1028 2.5476C27.8944 2.75598 27.7773 3.03859 27.7773 3.33328V9.99995C27.7773 10.2946 27.8944 10.5772 28.1028 10.7856C28.3112 10.994 28.5938 11.1111 28.8885 11.1111Z" fill="#DB251A"/>
<path d="M14.4453 6.66675H25.5564V8.88897H14.4453V6.66675Z" fill="#DB251A"/>
</svg>
