<svg width="50" height="50" viewBox="0 0 50 50" fill="none" xmlns="http://www.w3.org/2000/svg">
<path d="M48.5352 41.1133H46.9727V27.832C48.5881 27.832 49.9023 26.5178 49.9023 24.9023V2.92969C49.9023 1.31426 48.5881 0 46.9727 0H17.6758C16.0604 0 14.7461 1.31426 14.7461 2.92969V5.85938H3.02734C1.41191 5.85938 0.0976562 7.17363 0.0976562 8.78906V29.2969C0.0976562 30.9123 1.41191 32.2266 3.02734 32.2266V41.1133H1.46484C0.655859 41.1133 0 41.7691 0 42.5781V45.6055C0 48.0286 1.97139 50 4.39453 50H45.6055C48.0286 50 50 48.0286 50 45.6055V42.5781C50 41.7691 49.3441 41.1133 48.5352 41.1133ZM17.6758 2.92969H46.9727V24.9023C45.4114 24.9023 45.4034 24.8909 45.192 24.9374C44.8774 25.0068 44.5772 25.1861 44.364 25.4521L41.1133 29.5154V26.3672C41.1133 25.5582 40.4574 24.9023 39.6484 24.9023H35.2539V20.5078H39.6484C40.4574 20.5078 41.1133 19.852 41.1133 19.043C41.1133 18.234 40.4574 17.5781 39.6484 17.5781H35.2539V14.6484H42.5781C43.3871 14.6484 44.043 13.9926 44.043 13.1836C44.043 12.3746 43.3871 11.7188 42.5781 11.7188H35.2539V8.78906H42.5781C43.3871 8.78906 44.043 8.1332 44.043 7.32422C44.043 6.51523 43.3871 5.85938 42.5781 5.85938C42.005 5.85938 18.3356 5.85938 17.6758 5.85938V2.92969ZM3.02734 8.78906H32.3242V29.2969H10.3516C9.54258 29.2969 8.88672 29.9527 8.88672 30.7617V33.0847C5.30498 29.5029 5.51387 29.7055 5.42168 29.6297C5.1624 29.4169 4.82939 29.2969 4.49219 29.2969H3.02734V8.78906ZM5.95703 34.2981L9.31582 37.6568C9.59609 37.9371 9.9707 38.0859 10.352 38.0859C11.1584 38.0859 11.8165 37.4313 11.8165 36.6211V32.2266H32.3243C33.9397 32.2266 35.254 30.9123 35.254 29.2969V27.832H38.1837V33.6914C38.1837 34.5032 38.8435 35.1563 39.6482 35.1563C40.0848 35.1563 40.5089 34.9608 40.7924 34.6065L44.043 30.5432V41.1133H5.95703V34.2981ZM47.0703 45.6055C47.0703 46.4132 46.4132 47.0703 45.6055 47.0703H4.39453C3.58682 47.0703 2.92969 46.4132 2.92969 45.6055V44.043H47.0703V45.6055Z" fill="#F76D41"/>
<path d="M17.6758 26.3672C18.4848 26.3672 19.1406 25.7114 19.1406 24.9023C19.1406 24.0933 18.4848 23.4375 17.6758 23.4375C16.8668 23.4375 16.2109 24.0933 16.2109 24.9023C16.2109 25.7114 16.8668 26.3672 17.6758 26.3672Z" fill="#F76D41"/>
<path d="M16.6766 15.0432C16.9738 14.7651 17.3639 14.6259 17.7731 14.6515C18.4941 14.6962 19.094 15.2961 19.1387 16.0172C19.1858 16.7757 18.6377 17.4546 17.8905 17.5629C16.9179 17.7041 16.212 18.5149 16.212 19.4909V20.6055C16.212 21.4145 16.8678 22.0704 17.6768 22.0704C18.4858 22.0704 19.1417 21.4145 19.1417 20.6055V20.2563C20.9484 19.6124 22.1855 17.8139 22.0628 15.8357C21.926 13.6304 20.1597 11.8643 17.9546 11.7275C16.7324 11.6518 15.5672 12.0693 14.6751 12.9038C14.0843 13.4565 14.0534 14.3835 14.606 14.9743C15.1589 15.565 16.0859 15.5959 16.6766 15.0432Z" fill="#F76D41"/>
</svg>
