<svg width="55" height="55" viewBox="0 0 55 55" fill="none" xmlns="http://www.w3.org/2000/svg">
<path d="M25.1367 26.1875C25.0346 26.1875 24.9361 26.2026 24.8425 26.2293L24.8423 26.2285L21.7569 27.108C21.1864 27.2706 20.8556 27.865 21.0183 28.4355C21.1529 28.9077 21.5831 29.2155 22.0508 29.2155C22.1482 29.2155 22.2474 29.2021 22.3458 29.1741L24.0625 28.685V32.4898L10.7422 36.2867V32.4818L13.0479 31.8246C13.6184 31.6619 13.9492 31.0676 13.7865 30.497C13.6239 29.9265 13.0297 29.5961 12.459 29.7584L9.37353 30.6379L9.37363 30.6386C8.92364 30.7668 8.59375 31.1799 8.59375 31.671V45.3349C7.69538 44.6589 6.57937 44.2577 5.37109 44.2577C2.40947 44.2577 0 46.6672 0 49.6288C0 52.5904 2.40947 54.9999 5.37109 54.9999C8.33272 54.9999 10.7422 52.5904 10.7422 49.6288V38.5207L24.0625 34.7239V40.9257C23.1641 40.2498 22.0481 39.8485 20.8398 39.8485C17.8782 39.8485 15.4688 42.258 15.4688 45.2196C15.4688 48.1813 17.8782 50.5907 20.8398 50.5907C23.8015 50.5907 26.2109 48.1813 26.2109 45.2196V27.2617C26.2109 26.6684 25.73 26.1875 25.1367 26.1875ZM5.37109 52.8514C3.59412 52.8514 2.14844 51.4057 2.14844 49.6288C2.14844 47.8518 3.59412 46.4061 5.37109 46.4061C7.14807 46.4061 8.59375 47.8518 8.59375 49.6288C8.59375 51.4057 7.14807 52.8514 5.37109 52.8514ZM20.8398 48.4423C19.0629 48.4423 17.6172 46.9966 17.6172 45.2196C17.6172 43.4427 19.0629 41.997 20.8398 41.997C22.6168 41.997 24.0625 43.4427 24.0625 45.2196C24.0625 46.9966 22.6168 48.4423 20.8398 48.4423Z" fill="white"/>
<path d="M54.5726 0.215823C54.3028 0.0129029 53.9535 -0.0513354 53.6292 0.0419068L42.4135 3.27412C41.9535 3.40668 41.6367 3.82756 41.6367 4.30634V17.9703C40.7383 17.2944 39.6223 16.8932 38.4141 16.8932C35.4524 16.8932 33.043 19.3026 33.043 22.2643C33.043 25.2259 35.4524 27.6354 38.4141 27.6354C41.3757 27.6354 43.7852 25.2259 43.7852 22.2643V11.1536L54.2241 8.14528C54.6841 8.01272 55.0009 7.59184 55.0009 7.11306V1.07412C55.0009 0.736604 54.8422 0.418743 54.5726 0.215823ZM38.4141 25.4869C36.6371 25.4869 35.1914 24.0412 35.1914 22.2643C35.1914 20.4873 36.6371 19.0416 38.4141 19.0416C40.191 19.0416 41.6367 20.4873 41.6367 22.2643C41.6367 24.0412 40.191 25.4869 38.4141 25.4869ZM52.8524 6.30471L43.7852 8.91775V5.11469L52.8524 2.50165V6.30471Z" fill="white"/>
<path d="M50.6611 37.4645L45.4739 36.7107L43.1541 32.0104C42.9731 31.6438 42.5997 31.4116 42.1908 31.4116C41.782 31.4116 41.4085 31.6438 41.2276 32.0104L38.9078 36.7107L33.7206 37.4645C33.316 37.5233 32.9799 37.8068 32.8534 38.1956C32.727 38.5845 32.8325 39.0114 33.1253 39.2968L36.8787 42.9556L35.9926 48.1218C35.9234 48.5248 36.0891 48.9321 36.4199 49.1725C36.7507 49.4127 37.1893 49.4445 37.5512 49.2543L42.1907 46.8151L46.8303 49.2542C46.9874 49.3369 47.1591 49.3776 47.33 49.3776C47.5527 49.3776 47.7744 49.3084 47.9616 49.1724C48.2924 48.9321 48.4581 48.5248 48.3889 48.1217L47.5028 42.9555L51.2562 39.2967C51.549 39.0113 51.6544 38.5844 51.5281 38.1955C51.4017 37.8067 51.0657 37.5233 50.6611 37.4645ZM45.5989 41.8112C45.3457 42.058 45.2301 42.4136 45.29 42.762L45.9036 46.3396L42.6907 44.6505C42.3778 44.4859 42.0039 44.4859 41.6909 44.6505L38.478 46.3396L39.0916 42.762C39.1515 42.4136 39.0359 42.058 38.7827 41.8112L36.1835 39.2776L39.7756 38.7556C40.1254 38.7048 40.4279 38.485 40.5844 38.168L42.1908 34.913L43.7972 38.168C43.9538 38.485 44.2561 38.7048 44.606 38.7556L48.1981 39.2776L45.5989 41.8112Z" fill="white"/>
<path d="M3.5046 9.74381L2.79347 13.8895C2.72429 14.2925 2.88993 14.6998 3.22079 14.9402C3.55154 15.1805 3.99025 15.2123 4.35205 15.022L8.07508 13.0646L11.7982 15.022C11.9554 15.1046 12.127 15.1453 12.2979 15.1453C12.5206 15.1453 12.7423 15.0761 12.9295 14.9401C13.2603 14.6997 13.426 14.2925 13.3568 13.8894L12.6457 9.7437L15.6578 6.80775C15.9506 6.52233 16.056 6.09544 15.9297 5.70657C15.8033 5.31771 15.4671 5.03433 15.0624 4.97546L10.8998 4.37057L9.03844 0.59877C8.85754 0.232139 8.48414 0 8.07519 0C7.66623 0 7.29283 0.232139 7.11193 0.59877L5.25042 4.37067L1.08782 4.97557C0.683163 5.03433 0.34704 5.31781 0.220605 5.70668C0.0941692 6.09555 0.199657 6.52244 0.49249 6.80786L3.5046 9.74381ZM6.11817 6.41556C6.46805 6.36475 6.77055 6.14496 6.92695 5.82796L8.07508 3.50152L9.2232 5.82796C9.37972 6.14496 9.68211 6.36475 10.032 6.41556L12.5994 6.78863L10.7418 8.59955C10.4886 8.84641 10.373 9.20197 10.4329 9.55045L10.8715 12.1075L8.57513 10.9003C8.41861 10.818 8.24695 10.7769 8.07529 10.7769C7.90353 10.7769 7.73186 10.818 7.57546 10.9003L5.2791 12.1075L5.7177 9.55045C5.77754 9.20197 5.66195 8.84641 5.40876 8.59955L3.55079 6.78863L6.11817 6.41556Z" fill="white"/>
<path d="M25.1367 9.271C24.5434 9.271 24.0625 9.75192 24.0625 10.3452V11.4194C24.0625 12.0127 24.5434 12.4937 25.1367 12.4937C25.73 12.4937 26.2109 12.0127 26.2109 11.4194V10.3452C26.2109 9.75192 25.73 9.271 25.1367 9.271Z" fill="white"/>
<path d="M25.1367 16.7905C24.5434 16.7905 24.0625 17.2715 24.0625 17.8647V18.939C24.0625 19.5323 24.5434 20.0132 25.1367 20.0132C25.73 20.0132 26.2109 19.5323 26.2109 18.939V17.8647C26.2109 17.2715 25.73 16.7905 25.1367 16.7905Z" fill="white"/>
<path d="M29.4336 13.5679H28.3594C27.7661 13.5679 27.2852 14.0488 27.2852 14.6421C27.2852 15.2354 27.7661 15.7163 28.3594 15.7163H29.4336C30.0269 15.7163 30.5078 15.2354 30.5078 14.6421C30.5078 14.0488 30.0269 13.5679 29.4336 13.5679Z" fill="white"/>
<path d="M20.8398 15.7163H21.9141C22.5074 15.7163 22.9883 15.2354 22.9883 14.6421C22.9883 14.0488 22.5074 13.5679 21.9141 13.5679H20.8398C20.2466 13.5679 19.7656 14.0488 19.7656 14.6421C19.7656 15.2354 20.2466 15.7163 20.8398 15.7163Z" fill="white"/>
<path d="M17.4023 30.541C17.6849 30.541 17.962 30.4261 18.1618 30.2263C18.3616 30.0265 18.4766 29.7493 18.4766 29.4668C18.4766 29.1832 18.3616 28.9071 18.1618 28.7063C17.962 28.5064 17.6849 28.3926 17.4023 28.3926C17.1198 28.3926 16.8427 28.5064 16.6429 28.7063C16.4431 28.9071 16.3281 29.1832 16.3281 29.4668C16.3281 29.7493 16.4431 30.0265 16.6429 30.2263C16.8427 30.4261 17.1198 30.541 17.4023 30.541Z" fill="white"/>
</svg>
