<svg width="60" height="60" viewBox="0 0 60 60" fill="none" xmlns="http://www.w3.org/2000/svg">
<g clip-path="url(#clip0_5053_98)">
<path d="M10.3281 16.8173C10.3509 16.8173 10.3734 16.8161 10.3962 16.8155C10.3957 16.8383 10.3944 16.8608 10.3944 16.8836C10.3944 18.9319 12.0609 20.5984 14.1092 20.5984C16.1576 20.5984 17.824 18.9319 17.824 16.8836C17.824 14.8353 16.1575 13.1689 14.1092 13.1689C13.7247 13.1689 13.3536 13.2276 13.0045 13.3366C12.6898 12.153 11.6094 11.2783 10.3281 11.2783C8.80095 11.2783 7.55859 12.5207 7.55859 14.0478C7.55859 15.5749 8.80095 16.8173 10.3281 16.8173ZM16.0661 16.8836C16.0661 17.9626 15.1882 18.8405 14.1092 18.8405C13.0302 18.8405 12.1523 17.9626 12.1523 16.8836C12.1523 15.8046 13.0302 14.9268 14.1092 14.9268C15.1882 14.9268 16.0661 15.8046 16.0661 16.8836ZM10.3281 13.0362C10.8859 13.0362 11.3397 13.49 11.3397 14.0478C11.3397 14.6057 10.8859 15.0594 10.3281 15.0594C9.77025 15.0594 9.31648 14.6057 9.31648 14.0478C9.31648 13.49 9.77025 13.0362 10.3281 13.0362Z" fill="white"/>
<path d="M59.3325 6.03824C58.8712 5.57673 58.2335 5.33543 57.5817 5.37598C56.9304 5.41653 56.327 5.73518 55.9265 6.25035L50.4204 13.3295L42.1213 16.8863C41.6751 17.0775 41.4684 17.5942 41.6597 18.0404C41.8509 18.4865 42.3676 18.6932 42.8138 18.502L51.3213 14.8559C51.4579 14.7973 51.5776 14.705 51.6687 14.5877L54.9208 10.4065L56.1191 11.3283L53.6925 15.3726C53.3541 15.9367 52.8734 16.4073 52.3023 16.7336L46.7578 19.9019C46.4255 20.0917 46.2542 20.475 46.3345 20.8491L48.3348 30.184H42.9546L38.4866 23.0349C38.2714 22.6906 37.8483 22.5385 37.4634 22.6669L31.9271 24.5124H26.3317V23.4344H31.1244C31.2435 23.4344 31.3613 23.4102 31.4707 23.3634L39.0329 20.1224C39.4791 19.9312 39.6858 19.4145 39.4945 18.9683C39.3033 18.5222 38.7865 18.3156 38.3404 18.5067L30.944 21.6765H11.7463C10.4798 21.6765 9.44941 22.7069 9.44941 23.9734C9.44941 24.7007 9.79021 25.3489 10.3194 25.7701L9.54973 30.3883L0.609224 33.2314C0.255185 33.344 0.0134167 33.6685 0.00052549 34.0399C-0.0123657 34.4113 0.212996 34.7519 0.558596 34.8888C1.00463 35.0655 1.42594 35.2324 1.69513 35.4585C1.96268 35.6833 2.19929 36.0686 2.44973 36.4767C2.82862 37.0939 3.25813 37.7936 3.97769 38.2099C4.69057 38.6225 5.5074 38.6462 6.22802 38.6672C6.71062 38.6813 7.16638 38.6946 7.5019 38.8168C7.82418 38.9341 8.17517 39.2124 8.54679 39.5071C9.11752 39.9597 9.76431 40.4726 10.5917 40.6177C11.0392 40.6959 11.4768 40.6507 11.8944 40.5562L16.6845 46.3333L13.7927 49.7557C13.5746 50.0139 13.5237 50.3742 13.662 50.6826L14.6429 52.8707H13.7075L12.3144 50.0847C12.3034 50.0627 12.3054 50.0364 12.3197 50.0164L14.6475 46.7575C14.9297 46.3624 14.8382 45.8135 14.4431 45.5314C14.0482 45.2493 13.4991 45.3407 13.217 45.7358L10.8892 48.9948C10.4956 49.5461 10.4392 50.2649 10.7422 50.8708L12.3782 54.1428C12.527 54.4406 12.8314 54.6287 13.1643 54.6287H16.0001C16.2981 54.6287 16.5759 54.4777 16.7378 54.2276C16.8998 53.9775 16.9241 53.6622 16.8021 53.3902L15.4921 50.468L17.8243 47.7079L23.2992 54.3107C23.4662 54.5121 23.7142 54.6286 23.9758 54.6286H29.2339C29.6122 54.6286 29.948 54.3865 30.0677 54.0276C30.1873 53.6687 30.0638 53.2735 29.7612 53.0465L29.3976 52.7738L36.5616 42.9234C36.8472 42.5308 36.7603 41.9811 36.3677 41.6956C35.9752 41.41 35.4255 41.4968 35.1399 41.8894L27.9911 51.719L26.6214 50.6916L33.6832 39.2162L42.7758 31.9421H48.7115L48.8471 32.5746C48.9868 33.2264 48.7887 33.8969 48.3174 34.3684L42.7914 39.8943C42.5238 40.1619 42.4575 40.5705 42.6267 40.9089L46.863 49.3815L44.8043 49.8963L40.3091 41.655C39.9524 41.001 40.0016 40.1867 40.4347 39.5805L43.4528 35.3551C43.735 34.9601 43.6435 34.4111 43.2484 34.1291C42.8535 33.847 42.3045 33.9384 42.0224 34.3334L39.0042 38.5588C38.1822 39.7095 38.0887 41.2553 38.7658 42.4968L43.2715 50.7573L40.9007 53.1281C40.6493 53.3795 40.5741 53.7575 40.7102 54.0859C40.8462 54.4144 41.1668 54.6285 41.5222 54.6285H48.1391C48.6245 54.6285 49.0181 54.235 49.0181 53.7495V49.9684C49.0181 49.8319 48.9863 49.6974 48.9253 49.5754L44.4824 40.6891L49.5604 35.6111C50.4553 34.7162 50.8312 33.4432 50.5661 32.206L48.1881 21.1092L53.1747 18.2598C54.0067 17.7843 54.7072 17.0986 55.2001 16.277L59.675 8.81875C60.2132 7.92152 60.0725 6.77807 59.3325 6.03824ZM11.7463 23.4344H24.5738V24.5124H11.7463C11.4491 24.5124 11.2073 24.2706 11.2073 23.9734C11.2073 23.6762 11.4491 23.4344 11.7463 23.4344ZM15.4568 30.1839H11.3659L12.0182 26.2701H17.4136L15.4568 30.1839ZM24.3886 52.8704L13.7326 40.0188C13.8644 39.9929 13.9911 39.9766 14.1095 39.9766C14.475 39.9766 14.9126 40.122 15.3758 40.276C15.8214 40.4242 16.3063 40.5834 16.8132 40.6371L24.7443 51.4339C24.7954 51.5034 24.8564 51.5651 24.9253 51.6168L26.5969 52.8705H24.3886V52.8704ZM32.4658 37.9387C32.3868 38.0019 32.3193 38.0782 32.2662 38.1645L25.3883 49.3412L18.6832 40.2136C19.0442 40.0036 19.3687 39.7472 19.6713 39.5071C20.0428 39.2125 20.3939 38.9342 20.7163 38.8168C21.0516 38.6946 21.5074 38.6815 21.9898 38.6675C22.7105 38.6465 23.5272 38.6228 24.2399 38.2104C24.9602 37.7938 25.3911 37.094 25.7713 36.4768C25.9061 36.258 26.0333 36.0514 26.1655 35.8681C26.3196 35.6543 26.3699 35.3827 26.3022 35.128C26.2344 34.8733 26.0561 34.6624 25.8161 34.5535L20.1469 31.9801C19.7047 31.7792 19.1838 31.9751 18.9833 32.4171C18.7826 32.8592 18.9783 33.3801 19.4203 33.5807L24.1639 35.734C23.906 36.1478 23.654 36.5186 23.3597 36.6889C23.0318 36.8786 22.5009 36.894 21.9389 36.9104C21.3661 36.927 20.717 36.9459 20.115 37.165C19.5249 37.3799 19.0442 37.7611 18.5792 38.1298C18.1328 38.4837 17.7113 38.818 17.3232 38.8859C16.9585 38.9497 16.4592 38.7837 15.9304 38.6079C15.3816 38.4255 14.7595 38.2187 14.1095 38.2187C13.4594 38.2187 12.8373 38.4255 12.2884 38.6078C11.7594 38.7836 11.2596 38.9494 10.895 38.8858C10.507 38.8177 10.0854 38.4835 9.63903 38.1294C9.17412 37.7607 8.69328 37.3795 8.10334 37.1647C7.50132 36.9454 6.85207 36.9266 6.27935 36.9098C5.7173 36.8934 5.1863 36.878 4.85827 36.6882C4.52381 36.4946 4.24407 36.0391 3.94804 35.5567C3.68236 35.124 3.40907 34.6788 3.03511 34.3044L10.4649 31.9418H16.0001C16.3442 31.9418 16.6413 31.7436 16.7857 31.4555L16.7862 31.4559L19.3791 26.2701H32.0697C32.1641 26.2701 32.258 26.2549 32.3477 26.225L37.3628 24.5533L41.3077 30.8651L32.4658 37.9387ZM43.6443 52.8704L44.8076 51.7071L47.2603 51.094V52.8704H43.6443ZM58.1675 7.91425L57.0297 9.81066L56.0002 9.01868L57.314 7.32946C57.4389 7.16891 57.6038 7.13586 57.6909 7.13035C57.7777 7.12484 57.9457 7.13727 58.0896 7.28118C58.258 7.4497 58.2901 7.70999 58.1675 7.91425Z" fill="white"/>
<path d="M37.7421 17.7626C39.7904 17.7626 41.4569 16.0961 41.4569 14.0478C41.4569 11.9995 39.7904 10.333 37.7421 10.333C35.6938 10.333 34.0273 11.9995 34.0273 14.0478C34.0273 16.0961 35.6938 17.7626 37.7421 17.7626ZM37.7421 12.0909C38.8211 12.0909 39.699 12.9688 39.699 14.0478C39.699 15.1268 38.8211 16.0047 37.7421 16.0047C36.6631 16.0047 35.7852 15.1268 35.7852 14.0478C35.7852 12.9688 36.6631 12.0909 37.7421 12.0909Z" fill="white"/>
</g>
<defs>
<clipPath id="clip0_5053_98">
<rect width="60" height="60" fill="white"/>
</clipPath>
</defs>
</svg>
