<svg width="60" height="60" viewBox="0 0 60 60" fill="none" xmlns="http://www.w3.org/2000/svg">
<g clip-path="url(#clip0_5053_103)">
<path d="M46.125 17.125V18.375H49.625C50.1772 18.375 50.625 18.8228 50.625 19.375C50.625 19.9273 50.1772 20.375 49.625 20.375H45.125C44.5727 20.375 44.125 19.9273 44.125 19.375V17.125C44.125 15.3329 45.5829 13.875 47.375 13.875C48.0642 13.875 48.625 13.3143 48.625 12.625C48.625 11.9358 48.0642 11.375 47.375 11.375H45.125C44.5727 11.375 44.125 10.9273 44.125 10.375C44.125 9.82275 44.5727 9.375 45.125 9.375H47.375C49.1671 9.375 50.625 10.8329 50.625 12.625C50.625 14.4171 49.1671 15.875 47.375 15.875C46.6857 15.875 46.125 16.4358 46.125 17.125ZM40.3345 39.7026C39.8252 39.9165 39.586 40.5026 39.8 41.0119C42.7362 48.0009 37.5724 55.75 30 55.75C24.1414 55.75 19.375 50.9836 19.375 45.125C19.375 36.7799 28.5971 31.7148 35.6245 36.109C36.0925 36.4016 36.7097 36.2595 37.0025 35.7913C37.2952 35.323 37.153 34.706 36.6847 34.4133C28.3484 29.2001 17.375 35.1929 17.375 45.125C17.375 52.0864 23.0386 57.75 30 57.75C38.9965 57.75 45.1355 48.547 41.6436 40.2371C41.4297 39.7281 40.8437 39.4883 40.3345 39.7026ZM23.5981 21.1225C23.8716 20.6428 23.7047 20.032 23.225 19.7584C22.7451 19.485 22.1346 19.6518 21.8609 20.1315C19.9717 23.4429 16.4329 25.5 12.625 25.5C6.76637 25.5 2 20.7336 2 14.875C2 9.01638 6.76637 4.25 12.625 4.25C18.4836 4.25 23.25 9.01638 23.25 14.875C23.25 15.4273 23.6977 15.875 24.25 15.875C24.8022 15.875 25.25 15.4273 25.25 14.875C25.25 7.91363 19.5864 2.25 12.625 2.25C5.66362 2.25 0 7.91363 0 14.875C0 21.8364 5.66362 27.5 12.625 27.5C17.1492 27.5 21.354 25.0563 23.5981 21.1225ZM60 14.875C60 21.8364 54.3364 27.5 47.375 27.5C40.4136 27.5 34.75 21.8364 34.75 14.875C34.75 7.91363 40.4136 2.25 47.375 2.25C54.3364 2.25 60 7.91363 60 14.875ZM58 14.875C58 9.01638 53.2336 4.25 47.375 4.25C41.5164 4.25 36.75 9.01638 36.75 14.875C36.75 20.7336 41.5164 25.5 47.375 25.5C53.2336 25.5 58 20.7336 58 14.875ZM30.122 39.625H27.875C27.3227 39.625 26.875 40.0728 26.875 40.625C26.875 41.1773 27.3227 41.625 27.875 41.625H30.122C30.8112 41.625 31.372 42.1858 31.372 42.875C31.372 43.5643 30.8112 44.125 30.122 44.125H29.125C28.5727 44.125 28.125 44.5728 28.125 45.125C28.125 45.6773 28.5727 46.125 29.125 46.125H30.122C30.8112 46.125 31.372 46.6858 31.372 47.375C31.372 48.0643 30.8112 48.625 30.122 48.625H27.875C27.3227 48.625 26.875 49.0728 26.875 49.625C26.875 50.1773 27.3227 50.625 27.875 50.625H30.122C32.977 50.625 34.4437 47.1849 32.4639 45.125C34.4417 43.0671 32.979 39.625 30.122 39.625ZM10.375 18.375C9.82275 18.375 9.375 18.8228 9.375 19.375C9.375 19.9273 9.82275 20.375 10.375 20.375H14.875C15.4272 20.375 15.875 19.9273 15.875 19.375C15.875 18.8228 15.4272 18.375 14.875 18.375H13.625V10.375C13.625 9.82275 13.1772 9.375 12.625 9.375H10.375C9.82275 9.375 9.375 9.82275 9.375 10.375C9.375 10.9273 9.82275 11.375 10.375 11.375H11.625V18.375H10.375ZM28.625 15.875H31.375C31.9272 15.875 32.375 15.4273 32.375 14.875C32.375 14.3228 31.9272 13.875 31.375 13.875H28.625C28.0727 13.875 27.625 14.3228 27.625 14.875C27.625 15.4273 28.0727 15.875 28.625 15.875ZM38.3074 31.7746C38.6549 31.7746 38.9925 31.5934 39.177 31.2699L40.2381 29.4089C40.5116 28.9291 40.3446 28.3184 39.8649 28.0449C39.3849 27.7711 38.7744 27.9385 38.5009 28.4181L37.4397 30.2791C37.058 30.9486 37.5474 31.7746 38.3074 31.7746Z" fill="white"/>
</g>
<defs>
<clipPath id="clip0_5053_103">
<rect width="60" height="60" fill="white"/>
</clipPath>
</defs>
</svg>
