<svg width="50" height="50" viewBox="0 0 50 50" fill="none" xmlns="http://www.w3.org/2000/svg">
<path d="M25 0C11.1825 0 0 11.1813 0 25C0 38.8175 11.1813 50 25 50C38.8175 50 50 38.8187 50 25C50 11.1825 38.8187 0 25 0ZM25 47.0703C12.8304 47.0703 2.92969 37.1696 2.92969 25C2.92969 12.8304 12.8304 2.92969 25 2.92969C37.1696 2.92969 47.0703 12.8304 47.0703 25C47.0703 37.1696 37.1696 47.0703 25 47.0703Z" fill="#F76D41"/>
<path d="M25 5.95703C14.4997 5.95703 5.95703 14.4997 5.95703 25C5.95703 35.5003 14.4997 44.043 25 44.043C35.5003 44.043 44.043 35.5003 44.043 25C44.043 14.4997 35.5003 5.95703 25 5.95703ZM26.4648 41.046V38.1836C26.4648 37.3746 25.809 36.7188 25 36.7188C24.191 36.7188 23.5352 37.3746 23.5352 38.1836V41.046C15.8169 40.3471 9.65293 34.1831 8.954 26.4648H11.8164C12.6254 26.4648 13.2812 25.809 13.2812 25C13.2812 24.191 12.6254 23.5352 11.8164 23.5352H8.954C9.65293 15.8169 15.8169 9.65293 23.5352 8.954V11.8164C23.5352 12.6254 24.191 13.2812 25 13.2812C25.809 13.2812 26.4648 12.6254 26.4648 11.8164V8.954C34.1831 9.65293 40.3471 15.8169 41.046 23.5352H38.1836C37.3746 23.5352 36.7188 24.191 36.7188 25C36.7188 25.809 37.3746 26.4648 38.1836 26.4648H41.046C40.3471 34.1831 34.1831 40.3471 26.4648 41.046Z" fill="#F76D41"/>
<path d="M30.8594 23.5352H26.4648V17.6758C26.4648 16.8668 25.809 16.2109 25 16.2109C24.191 16.2109 23.5352 16.8668 23.5352 17.6758V25C23.5352 25.809 24.191 26.4648 25 26.4648H30.8594C31.6684 26.4648 32.3242 25.809 32.3242 25C32.3242 24.191 31.6684 23.5352 30.8594 23.5352Z" fill="#F76D41"/>
</svg>
